<svg xmlns="http://www.w3.org/2000/svg" aria-hidden="true" style="position:absolute;width:0;height:0;overflow:hidden">
  <defs>
    <symbol id="icon-calendar" viewBox="0 0 32 32">
      <path d="M7 0a.997.997 0 0 1 1 1v1h16V1a.997.997 0 0 1 1-1 .997.997 0 0 1 1 1v1h2a4.003 4.003 0 0 1 4 4v22a4.003 4.003 0 0 1-4 4H4a4.003 4.003 0 0 1-4-4V6a4.003 4.003 0 0 1 4-4h2V1a.997.997 0 0 1 1-1zM4 4a2 2 0 0 0-2 2v22a2 2 0 0 0 2 2h24a2 2 0 0 0 2-2V6a2 2 0 0 0-2-2H4z"/>
      <path d="M5 8a.997.997 0 0 1 1-1h20a.997.997 0 0 1 1 1v2a.997.997 0 0 1-1 1H6a.997.997 0 0 1-1-1V8zm17 7a.997.997 0 0 1 1-1h2a.997.997 0 0 1 1 1v2a.997.997 0 0 1-1 1h-2a.997.997 0 0 1-1-1v-2zm-6 0a.997.997 0 0 1 1-1h2a.997.997 0 0 1 1 1v2a.997.997 0 0 1-1 1h-2a.997.997 0 0 1-1-1v-2zM6 21a.997.997 0 0 1 1-1h2a.997.997 0 0 1 1 1v2a.997.997 0 0 1-1 1H7a.997.997 0 0 1-1-1v-2zm6 0a.997.997 0 0 1 1-1h2a.997.997 0 0 1 1 1v2a.997.997 0 0 1-1 1h-2a.997.997 0 0 1-1-1v-2z"/>
    </symbol>
    <symbol id="icon-car" viewBox="0 0 32 32">
      <path d="M8 18a2 2 0 1 1-4.001-.001A2 2 0 0 1 8 18zm20 0a2 2 0 1 1-4.001-.001A2 2 0 0 1 28 18zm-16-2a2 2 0 0 0 0 4h8a2 2 0 0 0 0-4h-8zM9.724 8.552 7.812 12.38a1.02 1.02 0 0 0 .994 1.461c1.82-.146 4.7-.34 7.194-.34s5.376.194 7.194.34a1.018 1.018 0 0 0 .994-1.461l-1.912-3.826A1.002 1.002 0 0 0 21.382 8H10.618a1.002 1.002 0 0 0-.894.552z"/>
      <path d="M5.04 7.03A5.002 5.002 0 0 1 9.64 4h12.724a5 5 0 0 1 4.596 3.03l1.584 3.696c.15.35.42.638.76.808 1 .5 1.71 1.43 1.93 2.524l.67 3.358c.067.323.099.649.098.98v.826a4.97 4.97 0 0 1-2 3.994V27a.997.997 0 0 1-1 1h-4a.997.997 0 0 1-1-1v-2.676c-2.584.096-5.49.176-8 .176s-5.416-.08-8-.176V27a.997.997 0 0 1-1 1h-4a.997.997 0 0 1-1-1v-3.784a4.97 4.97 0 0 1-2-3.994v-.826c0-.329.033-.657.098-.98l.67-3.36a3.615 3.615 0 0 1 1.928-2.522 1.6 1.6 0 0 0 .762-.808L5.044 7.03H5.04zM9.64 6a3.004 3.004 0 0 0-2.758 1.82l-1.584 3.694a3.602 3.602 0 0 1-1.706 1.808 1.606 1.606 0 0 0-.86 1.128l-.672 3.358c-.039.194-.059.39-.06.588v.826a2.959 2.959 0 0 0 2.816 2.968c3.11.14 7.572.31 11.184.31s8.074-.168 11.184-.31A2.957 2.957 0 0 0 30 19.222v-.826c0-.197-.02-.393-.06-.588l-.67-3.36a1.611 1.611 0 0 0-.86-1.126 3.602 3.602 0 0 1-1.706-1.808L25.12 7.818A3.006 3.006 0 0 0 22.36 6H9.64z"/>
    </symbol>
    <symbol id="icon-fuel-pump" viewBox="0 0 32 32">
      <path d="M6 5a.997.997 0 0 1 1-1h10a.997.997 0 0 1 1 1v10a.997.997 0 0 1-1 1H7a.997.997 0 0 1-1-1V5z"/>
      <path d="M2 4a4.003 4.003 0 0 1 4-4h12a4.003 4.003 0 0 1 4 4v16a4.003 4.003 0 0 1 4 4v1a.997.997 0 0 0 1 1 .997.997 0 0 0 1-1v-9h-1a.997.997 0 0 1-1-1V8.75a.997.997 0 0 1 1-1h2.99c-.022-.952-.106-1.788-.402-2.444a1.944 1.944 0 0 0-.788-.916C28.432 4.17 27.872 4 27 4a.997.997 0 0 1-1-1 .997.997 0 0 1 1-1c1.128-.003 2.069.221 2.824.672.766.456 1.268 1.102 1.588 1.814.59 1.31.588 2.93.588 4.162v6.35a.988.988 0 0 1-.293.708.991.991 0 0 1-.708.293h-1v9a3.004 3.004 0 0 1-3 3 3.004 3.004 0 0 1-3-3v-1a2 2 0 0 0-2-2v8h1a.997.997 0 0 1 1 1 .997.997 0 0 1-1 1h-22a.997.997 0 0 1-1-1 .997.997 0 0 1 1-1h1v-26zm18 0a2 2 0 0 0-2-2H6a2 2 0 0 0-2 2v26h16V4z"/>
    </symbol>
    <symbol id="icon-gear" viewBox="0 0 32 32">
      <path d="M16 9.508a6.49 6.49 0 1 0 6.492 6.49 6.495 6.495 0 0 0-1.901-4.591A6.495 6.495 0 0 0 16 9.506zM11.508 16A4.489 4.489 0 0 1 16 11.508 4.489 4.489 0 0 1 20.492 16 4.489 4.489 0 0 1 16 20.492 4.489 4.489 0 0 1 11.508 16z"/>
      <path d="M19.592 2.686c-1.054-3.58-6.13-3.58-7.184 0l-.188.638a1.754 1.754 0 0 1-1.006 1.12 1.756 1.756 0 0 1-1.504-.079l-.584-.32c-3.28-1.784-6.866 1.804-5.08 5.082l.318.584a1.746 1.746 0 0 1-1.041 2.51l-.638.188c-3.58 1.054-3.58 6.13 0 7.184l.638.188a1.754 1.754 0 0 1 1.12 1.006 1.756 1.756 0 0 1-.079 1.504l-.32.584c-1.784 3.28 1.802 6.868 5.082 5.08l.584-.318a1.746 1.746 0 0 1 2.51 1.04l.188.638c1.054 3.58 6.13 3.58 7.184 0l.188-.638a1.754 1.754 0 0 1 1.006-1.12 1.74 1.74 0 0 1 1.504.08l.584.32c3.28 1.786 6.868-1.804 5.08-5.082l-.318-.584a1.746 1.746 0 0 1 1.04-2.51l.638-.188c3.58-1.054 3.58-6.13 0-7.184l-.638-.188a1.754 1.754 0 0 1-1.12-1.006 1.74 1.74 0 0 1 .08-1.504l.32-.584c1.786-3.28-1.804-6.866-5.082-5.08l-.584.318a1.746 1.746 0 0 1-2.51-1.041l-.188-.638zm-5.266.566c.492-1.67 2.856-1.67 3.348 0l.188.638a3.748 3.748 0 0 0 5.385 2.23l.582-.32c1.528-.83 3.2.84 2.368 2.37l-.318.584a3.74 3.74 0 0 0-.17 3.225 3.75 3.75 0 0 0 2.403 2.159l.636.188c1.67.492 1.67 2.856 0 3.348l-.638.188a3.748 3.748 0 0 0-2.23 5.385l.32.582c.83 1.528-.84 3.2-2.37 2.368l-.582-.318a3.76 3.76 0 0 0-3.227-.171 3.746 3.746 0 0 0-2.159 2.403l-.188.636c-.492 1.67-2.856 1.67-3.348 0l-.188-.638a3.737 3.737 0 0 0-2.16-2.401 3.752 3.752 0 0 0-3.225.171l-.584.32c-1.528.83-3.2-.84-2.368-2.37l.318-.582c.268-.491.423-1.036.452-1.594s-.066-1.116-.279-1.633a3.745 3.745 0 0 0-2.404-2.161l-.638-.188c-1.67-.492-1.67-2.856 0-3.348l.638-.188a3.742 3.742 0 0 0 2.229-5.382l-.32-.584c-.83-1.528.84-3.2 2.37-2.368l.584.318a3.756 3.756 0 0 0 3.225.171 3.748 3.748 0 0 0 2.16-2.401l.188-.638z"/>
    </symbol>
    <symbol id="icon-checked" viewBox="0 0 32 32">
      <path d="M16 30A14.002 14.002 0 0 1 2 16a13.998 13.998 0 1 1 23.899 9.899A13.996 13.996 0 0 1 16 30zm0 2a15.997 15.997 0 0 0 16-16A15.997 15.997 0 0 0 16 0 15.997 15.997 0 0 0 0 16a15.997 15.997 0 0 0 16 16z"/>
      <path d="m21.94 9.94-.04.044-6.946 8.85-4.186-4.188a1.497 1.497 0 0 0-2.083.037 1.5 1.5 0 0 0-.037 2.083l5.292 5.294a1.482 1.482 0 0 0 1.087.438 1.51 1.51 0 0 0 1.071-.478l7.984-9.98a1.502 1.502 0 0 0-1.09-2.535 1.498 1.498 0 0 0-1.052.435z"/>
    </symbol>
    <symbol id="icon-favorite" viewBox="0 0 32 32">
      <path d="M16 2.628C24.876-6.496 47.068 9.47 16 30-15.068 9.472 7.124-6.496 16 2.628z"/>
    </symbol>
    <symbol id="icon-location" viewBox="0 0 32 32">
      <path d="M23.061 16.762c-.982 1.991-2.314 3.975-3.675 5.756a60.032 60.032 0 0 1-4.136 4.819 59.83 59.83 0 0 1-4.136-4.819c-1.361-1.781-2.692-3.765-3.675-5.756-.994-2.012-1.564-3.896-1.564-5.512a9.376 9.376 0 0 1 18.75 0c0 1.616-.572 3.501-1.564 5.512zM15.25 30S26.5 19.339 26.5 11.25a11.249 11.249 0 1 0-22.5 0C4 19.339 15.25 30 15.25 30z"/>
      <path d="M15.25 15a3.752 3.752 0 0 1-3.75-3.75 3.752 3.752 0 0 1 3.75-3.75A3.752 3.752 0 0 1 19 11.25 3.752 3.752 0 0 1 15.25 15zm0 1.875a5.63 5.63 0 0 0 5.625-5.625 5.63 5.63 0 0 0-5.625-5.625 5.63 5.63 0 0 0-5.625 5.625 5.63 5.63 0 0 0 5.625 5.625z"/>
    </symbol>
    <symbol id="icon-outline-favorite" viewBox="0 0 32 32">
      <path d="m16 5.496-1.434-1.474C11.2.562 5.028 1.756 2.8 6.106c-1.046 2.046-1.282 5 .628 8.77C5.268 18.506 9.096 22.854 16 27.59c6.904-4.736 10.73-9.084 12.572-12.714 1.91-3.772 1.676-6.724.628-8.77C26.972 1.756 20.8.56 17.434 4.02L16 5.496zM16 30C-14.666 9.736 6.558-6.08 15.648 2.286c.12.111.237.225.352.342a5.94 5.94 0 0 1 .352-.34C25.44-6.084 46.666 9.734 16 30z"/>
    </symbol>
  </defs>
</svg>