<svg xmlns="http://www.w3.org/2000/svg" style="display: none;">
 
    <path d="M8 0c-3.156 0-5.714 2.558-5.714 5.714s2.558 5.714 5.714 5.714c2.115 0 3.941-1.149 4.929-2.857h3.071l2.286-2.286 2.286 2.286 2.286-2.286 2.286 2.286h1.143l3.429-2.857-3.429-2.857h-13.357c-0.988-1.708-2.813-2.857-4.929-2.857zM5.714 4.571c0.631 0 1.143 0.512 1.143 1.143s-0.512 1.143-1.143 1.143c-0.631 0-1.143-0.512-1.143-1.143s0.512-1.143 1.143-1.143zM9.143 13.714l-2.286 6.857c-1.080 0-2.286 0.878-2.286 2.286v6.857h2.286c0 0 0 2.286 2.286 2.286s2.286-2.286 2.286-2.286h9.143c0 0 0 2.286 2.286 2.286s2.286-2.286 2.286-2.286h2.286v-6.857c0-1.19-1.041-2.286-2.286-2.286l-2.286-6.857zM11.429 16h9.143l1.429 4.571h-12zM9.143 23.429c0.947 0 1.714 0.767 1.714 1.714s-0.768 1.714-1.714 1.714c-0.947 0-1.714-0.767-1.714-1.714s0.767-1.714 1.714-1.714zM22.857 23.429c0.947 0 1.714 0.767 1.714 1.714s-0.767 1.714-1.714 1.714c-0.947 0-1.714-0.767-1.714-1.714s0.767-1.714 1.714-1.714z"></path>

  </svg>